# xmcd
#
# Track frame offsets:
#	150
#	13782
#	26307
#	38302
#	53632
#	68577
#	78657
#	90507
#	100632
#	113105
#	124015
#	132937
#	146290
#	155497
#
# Disc length: 2258 seconds
#
# Revision: 0
# Processed by: cddbd v1.5.1PL0 Copyright (c) Steve Scherf et al.
# Submitted via: dBpowerAMP V4.0
#
DISCID=9f08d00e
DTITLE=crioulo e seresteiro - as melhores cd 02
DYEAR=2004
DGENRE=sertanejo
TTITLE0=cabelo loiro
TTITLE1=amigo do amigo
TTITLE2=recado
TTITLE3=mulher voluvel
TTITLE4=carro velho
TTITLE5=serenata do amor
TTITLE6=galo velho
TTITLE7=beijinho da nega
TTITLE8=rainha da beleza
TTITLE9=me da um beijo
TTITLE10=arreliento
TTITLE11=minha cidade
TTITLE12=mineiro e paulista
TTITLE13=vai com deus
EXTD=raiz sertaneja
EXTT0=
EXTT1=
EXTT2=
EXTT3=
EXTT4=
EXTT5=
EXTT6=
EXTT7=
EXTT8=
EXTT9=
EXTT10=
EXTT11=
EXTT12=
EXTT13=
PLAYORDER=
